<svg width="56" height="56" viewBox="0 0 56 56" fill="none" xmlns="http://www.w3.org/2000/svg">
<mask id="mask0_1229_10" style="mask-type:luminance" maskUnits="userSpaceOnUse" x="0" y="0" width="56" height="56">
<path d="M56 28C56 12.536 43.464 0 28 0C12.536 0 0 12.536 0 28C0 43.464 12.536 56 28 56C43.464 56 56 43.464 56 28Z" fill="white"/>
</mask>
<g mask="url(#mask0_1229_10)">
<path d="M56 0H0V56H56V0Z" fill="white"/>
<path d="M14.5 22C14.5 20.3594 15.8125 19 17.5 19H29.5C31.1406 19 32.5 20.3594 32.5 22V34C32.5 35.6875 31.1406 37 29.5 37H17.5C15.8125 37 14.5 35.6875 14.5 34V22ZM40.7031 20.6875C41.1719 20.9688 41.5 21.4844 41.5 22V34C41.5 34.5625 41.1719 35.0781 40.7031 35.3594C40.1875 35.5938 39.625 35.5938 39.1562 35.2656L34.6562 32.2656L34 31.8438V31V25V24.2031L34.6562 23.7812L39.1562 20.7812C39.625 20.4531 40.1875 20.4531 40.7031 20.6875Z" fill="#264759"/>
</g>
</svg>
