<svg width="56" height="56" viewBox="0 0 56 56" fill="none" xmlns="http://www.w3.org/2000/svg">
<rect width="56" height="56" rx="28" fill="#DE350B"/>
<path d="M13.5156 28.5156C13.1875 27.7656 13.2812 26.875 13.8906 26.2656C16.2344 23.9219 21.2031 20.5 28 20.5C34.75 20.5 39.7188 23.9219 42.0625 26.2656C42.6719 26.875 42.7656 27.7656 42.4375 28.5156L40.4688 32.9219C40.1875 33.5781 39.4844 33.9062 38.7812 33.7656L33.6719 32.7812C32.9688 32.6406 32.5 32.0312 32.5 31.2812V27.25C29.5469 26.3125 26.4062 26.3125 23.5 27.25V31.2812C23.5 32.0312 22.9844 32.6406 22.2812 32.7812L17.1719 33.7656C16.4688 33.9062 15.7656 33.5781 15.4844 32.9219L13.5156 28.5156Z" fill="white"/>
</svg>
