<svg width="56" height="56" viewBox="0 0 56 56" fill="none" xmlns="http://www.w3.org/2000/svg">
<mask id="mask0_1229_52" style="mask-type:luminance" maskUnits="userSpaceOnUse" x="0" y="0" width="56" height="56">
<path d="M56 28C56 12.536 43.464 0 28 0C12.536 0 0 12.536 0 28C0 43.464 12.536 56 28 56C43.464 56 56 43.464 56 28Z" fill="white"/>
</mask>
<g mask="url(#mask0_1229_52)">
<g opacity="0.4">
<path d="M56 0H0V56H56V0Z" fill="white"/>
</g>
<path d="M14.7811 16.2812L18.2968 19H29.4999C31.1405 19 32.4999 20.3594 32.4999 22V30.1094L33.9999 31.2812V31V25V24.2031L34.6561 23.7812L39.1561 20.7812C39.6249 20.4531 40.1874 20.4531 40.703 20.6875C41.1718 20.9688 41.4999 21.4844 41.4999 22V34C41.4999 34.5625 41.1718 35.0781 40.703 35.3594C40.1874 35.5938 39.6249 35.5938 39.1561 35.2656L38.4999 34.8438L42.5311 38.0312C43.0468 38.4062 43.1405 39.1094 42.7187 39.5781C42.3437 40.0938 41.6405 40.1875 41.1718 39.7656L13.4218 18.0156C12.9061 17.6406 12.8124 16.9375 13.2343 16.4688C13.6093 15.9531 14.3124 15.8594 14.7811 16.2812ZM32.078 35.5469C31.5155 36.4375 30.578 37 29.4999 37H17.4999C15.8124 37 14.4999 35.6875 14.4999 34V22C14.4999 21.9062 14.4999 21.8125 14.4999 21.7188L32.078 35.5469Z" fill="white"/>
</g>
</svg>
