<svg width="56" height="56" viewBox="0 0 56 56" fill="none" xmlns="http://www.w3.org/2000/svg">
<mask id="mask0_1229_110" style="mask-type:luminance" maskUnits="userSpaceOnUse" x="0" y="0" width="56" height="56">
<path d="M56 28C56 12.536 43.464 0 28 0C12.536 0 0 12.536 0 28C0 43.464 12.536 56 28 56C43.464 56 56 43.464 56 28Z" fill="white"/>
</mask>
<g mask="url(#mask0_1229_110)">
<g opacity="0.4">
<path d="M56 0H0V56H56V0Z" fill="white"/>
</g>
<path d="M14.7811 16.2812L23.4999 23.0781V20.5C23.4999 18.0156 25.5155 16 27.9999 16C30.4843 16 32.4999 18.0156 32.4999 20.5V30.1094L33.2968 30.7656C33.7187 29.9688 33.9999 29.0312 33.9999 28V26.125C33.9999 25.5156 34.4687 25 35.1249 25C35.7343 25 36.2499 25.5156 36.2499 26.125V28C36.2499 29.5469 35.828 30.9531 35.1249 32.1719L42.5311 38.0312C43.0468 38.4062 43.1405 39.1094 42.7187 39.5781C42.3437 40.0938 41.6405 40.1875 41.1718 39.7656L13.4218 18.0156C12.9061 17.6406 12.8124 16.9375 13.2343 16.4688C13.6093 15.9531 14.3124 15.8594 14.7811 16.2812ZM29.1249 36.2031V37.75H31.3749C31.9843 37.75 32.4999 38.2656 32.4999 38.875C32.4999 39.5312 31.9843 40 31.3749 40H27.9999H24.6249C23.9687 40 23.4999 39.5312 23.4999 38.875C23.4999 38.2656 23.9687 37.75 24.6249 37.75H26.8749V36.2031C22.8437 35.6406 19.7499 32.2188 19.7499 28V26.125C19.7499 26.0312 19.7499 25.9375 19.7499 25.8438L21.9999 27.625V28C21.9999 31.3281 24.6718 34 27.9999 34C28.6093 34 29.2187 33.9062 29.7811 33.7656L31.7968 35.3594C30.953 35.7812 30.0624 36.0625 29.1249 36.2031Z" fill="white"/>
</g>
</svg>
