<svg width="56" height="56" viewBox="0 0 56 56" fill="none" xmlns="http://www.w3.org/2000/svg">
<circle cx="28" cy="28" r="28" fill="white"/>
<path d="M28.25 16C30.7344 16 32.75 18.0156 32.75 20.5V28C32.75 30.4844 30.7344 32.5 28.25 32.5C25.7656 32.5 23.75 30.4844 23.75 28V20.5C23.75 18.0156 25.7656 16 28.25 16ZM22.25 26.125V28C22.25 31.3281 24.9219 34 28.25 34C31.5312 34 34.25 31.3281 34.25 28V26.125C34.25 25.5156 34.7188 25 35.375 25C35.9844 25 36.5 25.5156 36.5 26.125V28C36.5 32.2188 33.3594 35.6406 29.375 36.2031V37.75H31.625C32.2344 37.75 32.75 38.2656 32.75 38.875C32.75 39.5312 32.2344 40 31.625 40H28.25H24.875C24.2188 40 23.75 39.5312 23.75 38.875C23.75 38.2656 24.2188 37.75 24.875 37.75H27.125V36.2031C23.0938 35.6406 20 32.2188 20 28V26.125C20 25.5156 20.4688 25 21.125 25C21.7344 25 22.25 25.5156 22.25 26.125Z" fill="#264759"/>
</svg>
